<ttFont>
<head>
    <!-- Most of this table will be recalculated by the compiler -->
    <tableVersion value="1.0"/>
    <fontRevision value="1.0"/>
    <checkSumAdjustment value="0x7447a1a6"/>
    <magicNumber value="0x5f0f3cf5"/>
    <flags value="00000000 00001011"/>
    <unitsPerEm value="1000"/>
    <created value="Thu Jun 18 17:02:37 2015"/>
    <modified value="Thu Jun 18 17:33:44 2015"/>
    <xMin value="5"/>
    <yMin value="-215"/>
    <xMax value="760"/>
    <yMax value="670"/>
    <macStyle value="00000000 00000001"/>
    <lowestRecPPEM value="8"/>
    <fontDirectionHint value="2"/>
    <indexToLocFormat value="0"/>
    <glyphDataFormat value="0"/>
  </head>
          <CharString index="0">
            -36 29 -30 37 36 30 30 36 36 -30 30 -36 -37 -29 -30 -36 vhcurveto
            return
          </CharString>
        <CharString name=".notdef">
          -70 0 50 433 50 hstem
          50 50 300 50 vstem
          50 hmoveto
          400 533 -400 hlineto
          50 -483 rmoveto
          433 300 -433 vlineto
          endchar
        </CharString>
        <CharString name="si_A">
          3 -4 39 165 30 56 23 79 45 hstemhm
          33 166 112 32 12 33 -4 4 32 25 5 79 hintmask 1111110111000000
          428 200 rmoveto
          51 50 24 57 hvcurveto
          0 80 -84 8 0 34 0 11 6 4 6 3 rrcurveto
          -19 -3 -17 -14 rlineto
          -1 -2 0 -7 0 -2 0 -21 3 -9 11 -17 8 -12 8 -23 0 -24 0 -31 -10 -26 -29 0 -7 0 -11 1 -9 5 rrcurveto
          -29 vlineto
          16 -5 15 -2 13 0 rrcurveto
          37 224 rmoveto
          -26 11 rlineto
          -20 -5 -22 -13 -15 -17 rrcurveto
          hintmask 1111111011000000
          -19 -23 -8 -27 0 -37 rrcurveto
          -528 33 525 vlineto
          0 39 5 45 72 30 rrcurveto
          58 -373 rmoveto
          35 vlineto
          -43 -33 -60 -18 -80 0 rrcurveto
          -80 -61 53 76 36 13 86 104 hvcurveto
          27 hlineto
          0 1 0 2 0 1 rrcurveto
          92 -48 51 -84 -57 -48 -23 -41 -24 19 -17 22 vhcurveto
          25 0 16 16 8 14 5 10 5 20 36 0 46 0 22 -41 1 -38 rrcurveto
          -109 hlineto
          -108 -61 -61 -88 -98 85 -66 164 hvcurveto
          104 0 86 21 51 34 rrcurveto
          endchar
        </CharString>
        <CharString name="si_Ca">
          -1 151 116 35 -28 28 88 42 118 27 hstemhm
          71 63 157 35 199 57 hintmask 10111111
          326 273 rmoveto
          0 4 0 9 0 3 rrcurveto
          86 -43 56 -88 -55 -50 -26 -47 -26 17 -13 22 vhcurveto
          31 0 7 16 7 19 5 16 13 19 34 0 35 0 30 -33 0 -49 0 -2 0 -2 0 -2 rrcurveto
          -14 hlineto
          -37 0 -41 -12 -34 -12 -26 -5 -19 -11 -16 -14 -23 -20 -10 -32 0 -31 rrcurveto
          -119 110 -46 121 183 97 114 160 169 -112 134 -160 vhcurveto
          -98 0 -72 -37 -49 -70 rrcurveto
          35 hlineto
          43 51 62 29 79 0 rrcurveto
          135 80 -107 -112 -108 -67 -72 -153 -90 -81 14 44 hvcurveto
          0 15 8 19 28 14 23 11 31 6 58 0 rrcurveto
          -127 hmoveto
          167 0 -33 28 rlineto
          hintmask 11011111
          -269 -35 hlineto
          16 3 48 3 71 1 rrcurveto
          endchar
        </CharString>
        <CharString name="si_DIi">
          77 0 151 134 30 72 45 22 26 91 99 hstemhm
          46 66 -35 67 154 30 50 33 105 45 -20 57 hintmask 1111110110100000
          258 315 rmoveto
          -243 -30 109 hlineto
          -55 -24 -23 -52 0 -51 0 -85 65 -73 87 0 48 0 36 20 31 39 31 -38 25 -21 62 0 121 0 46 141 0 114 0 111 -45 56 -71 33 rrcurveto
          hintmask 1111101111000000
          55 8 24 38 0 41 0 55 -35 33 -54 19 -45 15 -58 6 -62 0 -139 0 -91 -31 0 -88 0 -94 91 2 156 -5 rrcurveto
          hintmask 1111110110100000
          126 -4 91 -22 0 -136 rrcurveto
          -46 -24 -95 -90 -51 -49 11 50 vhcurveto
          14 -29 -14 vlineto
          -52 -50 -9 -49 -70 -17 29 34 23 17 48 95 vhcurveto
          71 hlineto
          -1 96 -52 51 -77 0 rrcurveto
          -42 -47 -15 -44 -23 18 -13 20 hvcurveto
          17 0 13 4 10 18 15 28 16 0 13 0 rrcurveto
          27 0 31 -29 2 -43 rrcurveto
          153 201 rmoveto
          20 16 19 34 vhcurveto
          hintmask 1111100111000000
          25 30 -11 -32 -21 -22 -12 -32 -33 -18 17 20 hvcurveto
          -3 -42 rmoveto
          -29 7 -54 3 -42 0 rrcurveto
          hintmask 1111101110000000
          -148 2 9 22 0 9 0 40 79 14 62 0 37 0 38 -3 34 -4 -13 -13 -3 -15 0 -19 0 -7 6 -26 24 -10 rrcurveto
          endchar
        </CharString>
        <CharString name="si_Dda">
          77 0 149 136 30 72 45 121 29 hstem
          46 66 186 30 208 62 vstem
          76 373 rmoveto
          -23 18 -13 20 vhcurveto
          17 0 13 4 10 18 15 28 16 0 13 0 27 0 31 -29 2 -43 rrcurveto
          -243 -30 110 hlineto
          -54 -23 -25 -50 0 -50 0 -81 52 -81 101 0 51 0 33 22 30 37 22 -30 28 -29 65 0 rrcurveto
          119 51 126 132 186 -119 138 -175 hvcurveto
          -94 0 -83 -36 -54 -78 rrcurveto
          36 hlineto
          48 54 61 31 80 0 rrcurveto
          158 80 -124 -136 -90 -57 -54 -68 -64 -20 24 33 hvcurveto
          16 -29 -16 vlineto
          -37 -25 -20 -68 -47 -46 11 54 24 20 47 93 vhcurveto
          70 hlineto
          -1 94 -52 53 -77 0 rrcurveto
          -42 -47 -15 -44 hvcurveto
          endchar
        </CharString>
        <CharString name="si_E">
          25 0 151 116 35 -28 28 57 46 -18 44 hstemhm
          45 71 144 35 -12 34 176 52 hintmask 1010111010000000
          493 305 rmoveto
          -83 -61 -71 -153 -85 -78 13 50 vhcurveto
          0 18 9 16 13 8 22 14 24 4 44 0 rrcurveto
          67 hlineto
          0 4 0 9 0 3 rrcurveto
          73 -38 69 -88 vhcurveto
          hintmask 1001011010000000
          -55 -50 -26 -47 -26 20 -13 19 hvcurveto
          27 0 12 11 8 24 rrcurveto
          hintmask 1010111010000000
          5 16 20 16 18 0 37 0 30 -31 0 -48 0 -2 0 -2 0 -2 rrcurveto
          -9 hlineto
          -37 0 -41 -12 -34 -12 -26 -5 -19 -11 -16 -14 -23 -20 -10 -32 0 -31 rrcurveto
          -119 110 -46 121 183 86 117 128 vhcurveto
          0 70 -13 48 -39 67 -36 62 -71 72 -61 33 rrcurveto
          hintmask 1011010110000000
          -27 -31 -15 -36 0 -50 0 -66 37 -55 63 0 43 0 30 20 15 30 rrcurveto
          9 -19 13 -28 0 -57 rrcurveto
          -364 -31 rmoveto
          162 0 -33 28 rlineto
          hintmask 1100010010000000
          -242 -35 hlineto
          16 3 26 3 71 1 rrcurveto
          320 166 rmoveto
          hintmask 1001010110000000
          -8 -24 -27 -11 -24 0 -45 0 -28 35 0 49 0 35 9 19 8 14 38 -28 47 -46 30 -43 rrcurveto
          endchar
        </CharString>
        <CharString name="si_Ga">
          66 -2 153 -152 28 189 27 69 119 -25 26 hstemhm
          34 49 133 28 48 60 148 86 hintmask 1010111110000000
          233 405 rmoveto
          26 vlineto
          -4 0 -5 1 -4 0 rrcurveto
          -111 -75 -102 -123 -111 63 -98 111 87 57 58 80 66 -31 40 -51 hvcurveto
          -7 0 -8 -2 -5 -3 rrcurveto
          hintmask 0111011110000000
          9 38 23 37 69 0 rrcurveto
          107 42 -88 -68 -59 -31 -70 -107 hvcurveto
          -8 0 -8 1 -8 1 rrcurveto
          -28 vlineto
          11 -1 10 -1 10 0 rrcurveto
          131 86 96 122 115 -64 100 -112 hvcurveto
          -122 0 -62 -115 -10 -125 rrcurveto
          28 hlineto
          0 3 1 9 1 6 4 2 7 4 13 0 rrcurveto
          -1 23 2 -23 hvcurveto
          hintmask 1010111110000000
          -18 -27 -26 -59 -73 -50 29 79 76 53 71 86 vhcurveto
          3 0 5 0 3 -1 rrcurveto
          endchar
        </CharString>
        <CharString name="si_Gha">
          107 -1 150 62 30 32 35 -28 28 -20 28 71 44 hstemhm
          51 55 172 35 65 47 114 40 -4 53 hintmask 1101011110100000
          187 432 rmoveto
          -55 -50 -26 -47 -26 20 -13 19 hvcurveto
          27 0 12 13 8 22 8 21 17 11 18 0 38 0 31 -35 -2 -44 rrcurveto
          -9 hlineto
          -37 0 -54 -13 -34 -13 -52 -16 -41 -40 0 -72 0 -78 57 -77 91 0 19 0 28 3 31 9 3 6 1 26 0 8 0 58 -22 14 13 51 rrcurveto
          8 22 14 15 38 0 32 0 16 -14 9 -21 17 -50 -28 -31 0 -43 0 -6 1 -30 3 -4 31 -8 27 -4 24 0 92 0 72 58 0 108 rrcurveto
          0 55 -31 53 -47 23 rrcurveto
          hintmask 1100111111000000
          20 12 9 21 0 21 0 53 -46 28 -54 0 -83 0 -48 -62 5 -91 33 7 26 2 36 0 rrcurveto
          hintmask 1101011110100000
          89 38 -36 -41 -46 -53 -16 -37 hvcurveto
          -31 0 -20 4 -9 8 -1 16 -3 13 -6 12 -17 23 -25 17 -41 0 -44 0 -30 -23 -14 -32 -3 -9 -2 -9 -1 -11 -8 -7 -24 -2 -19 0 rrcurveto
          -32 -49 7 46 hvcurveto
          0 29 22 22 29 13 20 9 23 5 21 0 rrcurveto
          92 hlineto
          2 84 -35 68 -93 0 rrcurveto
          hintmask 1110011110000000
          -182 -124 rmoveto
          -35 vlineto
          hintmask 1101011110000000
          16 3 55 5 71 -1 rrcurveto
          162 0 -33 28 rlineto
          109 2 rmoveto
          4 55 30 24 52 0 rrcurveto
          hintmask 1100111111000000
          27 41 -14 -32 hvcurveto
          0 -19 -10 -12 -8 -5 -14 5 -28 4 -34 0 -26 0 -21 -2 -13 -4 rrcurveto
          endchar
        </CharString>
        <CharString name="si_Ha">
          83 -1 30 -30 151 61 26 40 26 7 122 -53 53 hstemhm
          33 68 104 34 0 25 50 52 170 69 hintmask 0111011011100000
          264 182 rmoveto
          6 21 12 8 13 0 rrcurveto
          12 7 -7 -9 -43 -77 -2 -29 -45 -62 16 51 27 24 33 80 hvcurveto
          11 0 11 0 12 -2 rrcurveto
          87 -42 70 -79 -56 -29 -38 -30 -30 18 -10 20 vhcurveto
          12 0 17 6 9 21 10 24 9 4 22 0 rrcurveto
          hintmask 0111101101100000
          31 24 -38 -38 hvcurveto
          -4 0 -3 0 -4 0 rrcurveto
          -94 -67 -57 -91 -94 70 -62 98 95 70 54 92 54 -28 38 -38 hvcurveto
          -9 0 -10 -2 -10 -6 21 50 37 31 82 0 rrcurveto
          91 34 -72 -45 hvcurveto
          hintmask 1011101011100000
          -100 -49 -64 -99 vhcurveto
          -12 0 -12 1 -12 2 rrcurveto
          -30 vlineto
          14 -2 14 -1 13 0 rrcurveto
          123 89 93 119 118 -63 103 -112 hvcurveto
          -101 0 -81 -115 -9 -125 rrcurveto
          endchar
        </CharString>
        <CharString name="si_I">
          23 -160 24 121 29 40 28 22 29 98 30 50 121 hstemhm
          33 68 72 65 -33 33 100 41 -12 72 37 68 hintmask 1111111100110000
          273 15 rmoveto
          -11 0 -1 -1 -12 -1 rrcurveto
          -29 vlineto
          10 1 0 0 8 0 rrcurveto
          67 33 -26 -42 -38 -28 -15 -39 -52 -14 22 20 hvcurveto
          0 12 4 11 0 6 rrcurveto
          17 -16 10 -15 -17 -17 -12 -26 -63 63 -21 62 66 75 26 59 vhcurveto
          0 39 -22 24 -33 6 89 16 71 82 0 106 rrcurveto
          155 -100 79 -160 -143 -108 -75 -136 -104 80 -63 107 vhcurveto
          hintmask 1111111011010000
          90 69 36 80 55 -35 36 -58 -47 -34 -36 -46 -40 35 -35 45 hvcurveto
          14 0 19 4 15 12 -16 -24 -40 -14 -53 0 rrcurveto
          -80 -43 50 50 76 65 53 119 129 62 -80 -78 -81 -54 -59 -98 hvcurveto
          -17 0 -17 2 -17 0 rrcurveto
          15 216 rmoveto
          27 23 -21 -28 -27 -22 -22 -28 -27 -23 21 28 27 22 22 28 hvcurveto
          endchar
        </CharString>
        <CharString name="si_Ii">
          -42 0 143 259 28 -19 26 35 28 6 28 42 28 hstemhm
          31 45 41 28 76 28 71 109 -47 28 -5 77 4 28 hintmask 1101111110101000
          410 468 rmoveto
          21 17 17 21 21 17 -17 -21 -21 -17 -17 -21 vhcurveto
          -21 -17 17 21 hvcurveto
          -28 hmoveto
          -107 callsubr
          -237 70 rmoveto
          21 17 17 21 21 17 -17 -21 -21 -17 -17 -21 -21 -17 17 21 vhcurveto
          -28 hmoveto
          -107 callsubr
          53 -116 rmoveto
          -76 -39 -63 -60 0 -110 rrcurveto
          -124 93 -89 124 vhcurveto
          hintmask 1011111110011000
          136 98 102 123 hvcurveto
          0 56 -17 45 -35 40 -42 47 -55 24 -71 0 -9 0 -1 0 -5 -1 48 26 31 18 33 27 rrcurveto
          hintmask 1011111111001000
          48 41 22 23 0 20 0 18 -13 18 -29 0 -39 0 -15 -19 -13 -25 -9 -20 -8 -22 -16 -23 -20 -31 -44 -37 -53 -28 rrcurveto
          -94 -168 rmoveto
          102 111 55 72 vhcurveto
          hintmask 1011111110011000
          91 55 -42 -77 -99 -78 -50 -105 -108 -38 64 47 hvcurveto
          endchar
        </CharString>
        <CharString name="si_Ka">
          176 -1 152 -152 30 44 95 119 28 23 96 -49 48 hstemhm
          21 29 -21 84 81 31 56 26 133 75 91 95 hintmask 0011010111110000
          113 323 rmoveto
          6 17 -2 4 7 19 5 13 15 9 14 0 25 0 11 -17 0 -28 0 -6 0 -5 -1 -5 -30 -27 -28 -29 -26 -36 rrcurveto
          hintmask 0011001011110000
          -35 -48 -45 -93 -8 -69 rrcurveto
          29 -11 rlineto
          3 40 12 22 22 0 rrcurveto
          hintmask 1001100111110000
          33 0 -3 -74 87 0 42 0 33 23 17 41 21 -43 34 -21 46 0 rrcurveto
          85 33 69 58 125 -90 63 -120 hvcurveto
          -27 0 -34 -2 -30 -8 25 18 39 16 61 0 rrcurveto
          132 135 -83 -146 hvcurveto
          hintmask 0101100111110000
          -38 -16 -42 -43 vhcurveto
          -15 0 -17 5 -9 7 rrcurveto
          -2 -29 rlineto
          15 -12 21 -1 10 0 rrcurveto
          108 43 111 82 136 -98 106 -150 hvcurveto
          -87 0 -82 -33 -59 -55 rrcurveto
          4 vlineto
          hintmask 0011010111110000
          49 -37 34 -52 -57 -50 -39 -54 -12 6 -31 38 vhcurveto
          15 0 18 8 7 18 rrcurveto
          68 -55 rmoveto
          24 12 39 7 57 0 rrcurveto
          100 39 -42 -35 hvcurveto
          hintmask 1001000011110000
          -44 -30 -15 -35 -32 -36 -1 66 vhcurveto
          1 -26 -1 vlineto
          -61 -31 -4 -34 vhcurveto
          hintmask 0011000011110000
          -35 0 -13 17 -33 0 -11 0 -17 -5 -14 -12 10 15 2 6 27 40 15 23 16 18 18 15 rrcurveto
          endchar
        </CharString>
        <CharString name="si_Kha">
          60 -1 29 -28 147 -29 31 123 124 177 28 hstemhm
          32 35 115 30 134 67 116 55 hintmask 1011111110000000
          92 73 rmoveto
          25 21 20 24 25 20 -20 -25 -24 -20 -21 -25 vhcurveto
          -24 -21 21 24 hvcurveto
          -19 31 rmoveto
          -6 17 0 7 0 12 rrcurveto
          76 80 56 89 92 18 -45 -29 vhcurveto
          0 -30 -9 -22 -52 -62 -42 -50 -28 -39 -14 -13 rrcurveto
          39 -3 rlineto
          42 55 26 20 13 0 rrcurveto
          hintmask 0101111110000000
          27 0 4 -54 64 0 rrcurveto
          108 60 150 136 187 -120 128 -166 hvcurveto
          -112 0 -77 -48 -45 -83 rrcurveto
          36 hlineto
          40 69 65 34 89 0 rrcurveto
          151 84 -107 -148 -103 -24 -68 -58 hvcurveto
          -36 0 12 19 -29 0 -3 0 -3 -1 -3 0 4 13 24 23 0 57 rrcurveto
          85 -80 53 -93 -116 -92 -74 -139 vhcurveto
          hintmask 1011111110000000
          -75 24 -109 85 42 30 38 38 46 -35 28 -40 vhcurveto
          -31 0 -28 -21 -6 -24 rrcurveto
          endchar
        </CharString>
        <CharString name="si_Na">
          236 -1 31 -31 147 135 27 25 99 -50 49 hstemhm
          55 88 79 32 170 74 159 103 hintmask 1011011110000000
          269 296 rmoveto
          31 29 45 8 47 0 rrcurveto
          141 124 -78 -136 -65 -16 -24 -39 hvcurveto
          -15 0 -15 6 -17 10 rrcurveto
          -13 -25 rlineto
          22 -15 24 -7 25 0 rrcurveto
          74 73 64 120 152 -114 98 -140 hvcurveto
          -105 0 -98 -58 -50 -58 0 1 0 1 0 1 rrcurveto
          hintmask 0110111110000000
          67 -34 44 -65 -65 -34 -47 -48 -37 29 -7 14 vhcurveto
          27 0 16 29 2 24 2 27 18 10 21 0 23 0 15 -26 0 -34 0 -13 -1 -13 -7 -11 -82 -77 4 -50 -68 0 -17 0 -19 7 -9 6 rrcurveto
          -7 -116 124 -56 136 0 rrcurveto
          122 100 54 116 80 -69 59 -84 hvcurveto
          -28 0 -23 -2 -25 -10 rrcurveto
          64 -15 rmoveto
          59 32 -30 -39 -49 -49 -17 -111 hvcurveto
          -58 0 -44 1 -26 9 61 43 -4 82 140 0 rrcurveto
          endchar
        </CharString>
        <CharString name="si_Os">
          66 0 151 72 32 29 30 93 27 118 26 hstem
          30 43 99 30 40 32 18 27 70 32 112 57 vstem
          274 360 rmoveto
          26 21 21 26 26 21 -21 -26 -26 -21 -21 -26 -26 -21 21 26 vhcurveto
          114 -29 rmoveto
          1 -2 0 -2 0 -1 rrcurveto
          -45 -41 -27 -53 -55 -38 30 53 vhcurveto
          0 3 -1 17 0 14 0 30 -8 14 -10 8 -7 5 -9 4 -19 0 rrcurveto
          -74 -44 -100 -108 -97 48 -127 118 hvcurveto
          50 0 37 15 22 40 16 -39 44 -16 41 0 rrcurveto
          137 47 127 127 177 -104 147 -184 hvcurveto
          -127 0 -68 -47 -45 -65 rrcurveto
          33 hlineto
          45 55 59 31 99 0 rrcurveto
          160 75 -115 -117 -83 -34 -85 -96 -68 -17 29 29 hvcurveto
          5 -26 -4 vlineto
          -33 -15 -27 -74 -83 -47 47 83 49 21 73 51 23 4 -11 -20 vhcurveto
          0 -9 0 -19 0 -5 rrcurveto
          -76 53 -40 71 71 54 41 66 59 -36 45 -63 -49 -31 -32 -42 -39 29 -37 47 vhcurveto
          45 0 20 31 5 16 rrcurveto
          endchar
        </CharString>
        <CharString name="si_Pa">
          46 0 151 149 27 66 41 -29 28 hstemhm
          31 65 -38 85 360 38 -30 63 hintmask 11100100
          158 434 rmoveto
          -55 -45 -25 -40 -32 25 -9 15 hvcurveto
          21 0 17 13 7 19 6 18 12 15 32 0 30 0 25 -23 -5 -45 -13 1 -10 1 -13 0 rrcurveto
          hintmask 11011001
          -108 -68 -52 -91 -138 128 -46 148 141 126 56 130 hvcurveto
          0 55 -20 38 -40 24 rrcurveto
          hintmask 11010010
          19 14 8 17 0 20 0 39 -36 40 -66 0 -85 0 -45 -50 15 -87 23 4 24 2 23 0 rrcurveto
          hintmask 11101001
          78 39 -24 -40 -67 -110 -20 -94 -97 -114 16 67 47 44 19 77 hvcurveto
          1 0 35 -1 18 -2 rrcurveto
          17 87 -42 50 -88 0 rrcurveto
          328 -119 rmoveto
          -24 9 -26 4 -33 0 -16 0 -15 -1 -17 -2 rrcurveto
          hintmask 11010010
          -7 52 38 28 46 0 47 0 24 -25 0 -29 0 -13 -5 -12 -12 -11 rrcurveto
          endchar
        </CharString>
        <CharString name="si_Tta">
          33 -1 152 212 29 158 27 hstem
          32 70 385 70 vstem
          101 267 rmoveto
          57 55 39 78 vhcurveto
          32 0 28 -7 27 -13 rrcurveto
          32 vlineto
          -29 11 -33 5 -27 0 rrcurveto
          -106 -94 -68 -115 -127 101 -82 152 162 110 116 156 162 -111 144 -173 hvcurveto
          -96 0 -73 -38 -47 -69 rrcurveto
          36 hlineto
          41 52 61 28 80 0 rrcurveto
          144 68 -119 -108 -118 -91 -54 -117 -87 -91 33 83 hvcurveto
          endchar
        </CharString>
        <CharString name="si_U">
          81 -161 63 366 28 87 48 hstem
          32 168 371 32 vstem
          539 268 rmoveto
          0 2 0 4 0 2 rrcurveto
          94 -70 62 -93 -63 -46 -22 -45 -20 15 -20 31 vhcurveto
          25 0 17 17 8 12 13 23 21 6 18 0 41 0 45 -37 3 -50 rrcurveto
          -240 hlineto
          -143 -89 -86 -111 -161 145 -99 151 152 123 97 133 hvcurveto
          -32 hlineto
          -101 -90 -66 -83 -89 -109 77 140 94 35 55 124 vhcurveto
          endchar
        </CharString>
        <CharString name="si_Va">
          0 151 126 27 83 44 119 27 hstemhm
          33 73 -50 82 118 36 199 57 hintmask 11110111
          292 277 rmoveto
          0 4 0 6 0 3 rrcurveto
          86 -43 56 -88 -55 -50 -26 -47 -26 20 -13 20 vhcurveto
          27 0 9 16 6 19 6 16 14 16 31 0 37 0 30 -30 0 -49 0 -2 0 0 0 -2 rrcurveto
          -57 hlineto
          hintmask 11111011
          -101 -65 -54 -85 -119 113 -46 121 183 98 114 160 169 -112 134 -160 hvcurveto
          -98 0 -72 -37 -49 -70 rrcurveto
          35 hlineto
          43 51 62 29 79 0 rrcurveto
          134 81 -111 -121 -95 -68 -72 -153 -82 -82 13 55 35 31 23 74 hvcurveto
          endchar
        </CharString>
</ttFont>
